<svg xmlns="http://www.w3.org/2000/svg" viewBox="0 0 900 720" role="img" aria-labelledby="title">
  <title id="title">AI security dashboard visualization</title>
  <defs>
    <linearGradient id="g" x1="0" y1="0" x2="1" y2="1">
      <stop offset="0" stop-color="#0A1F5F"/>
      <stop offset="1" stop-color="#FACC15"/>
    </linearGradient>
    <filter id="glow"><feGaussianBlur stdDeviation="12" result="b"/><feMerge><feMergeNode in="b"/><feMergeNode in="SourceGraphic"/></feMerge></filter>
  </defs>
  <rect width="900" height="720" rx="48" fill="#020617"/>
  <path d="M120 580 C270 430 430 620 620 440 S790 210 850 290" fill="none" stroke="#FACC15" stroke-opacity=".35" stroke-width="3"/>
  <circle cx="450" cy="350" r="210" fill="none" stroke="#1E3A8A" stroke-width="2" stroke-dasharray="12 14"/>
  <circle cx="450" cy="350" r="145" fill="none" stroke="#FACC15" stroke-opacity=".55" stroke-width="2"/>
  <circle cx="450" cy="350" r="78" fill="url(#g)" opacity=".22" filter="url(#glow)"/>
  <path d="M405 332h90v66h-90z" rx="12" fill="#0b1120" stroke="#FDE047"/>
  <path d="M425 332v-22c0-34 50-34 50 0v22" fill="none" stroke="#FDE047" stroke-width="10" stroke-linecap="round"/>
  <g fill="#FDE047" filter="url(#glow)">
    <circle cx="210" cy="170" r="8"/><circle cx="694" cy="190" r="8"/><circle cx="730" cy="505" r="8"/><circle cx="185" cy="480" r="8"/>
  </g>
  <g stroke="#FDE047" stroke-opacity=".45" stroke-width="2">
    <path d="M218 176 405 332M686 196 495 332M722 500 495 398M193 475 405 398"/>
  </g>
  <g fill="#050B1F" stroke="#334155">
    <rect x="95" y="110" width="220" height="118" rx="22"/><rect x="590" y="112" width="225" height="118" rx="22"/>
    <rect x="90" y="450" width="235" height="125" rx="22"/><rect x="585" y="458" width="235" height="125" rx="22"/>
  </g>
  <g fill="#e2e8f0" font-family="Inter, Arial" font-size="24" font-weight="700">
    <text x="132" y="160">CCTV AI</text><text x="628" y="162">Fiber Link</text><text x="126" y="502">Access</text><text x="624" y="510">Wi-Fi Mesh</text>
  </g>
  <g stroke="#FACC15" stroke-width="8" stroke-linecap="round">
    <path d="M132 192h88"/><path d="M628 194h112"/><path d="M126 535h96"/><path d="M624 542h118"/>
  </g>
</svg>
